<svg xmlns="http://www.w3.org/2000/svg" xmlns:xlink="http://www.w3.org/1999/xlink" viewBox="0 0 1991.56 1335.94"><defs><style>.cls-1{mask:url(#mask);filter:url(#luminosity-noclip-3);}.cls-2,.cls-4,.cls-69,.cls-71{mix-blend-mode:multiply;}.cls-2{fill:url(#radial-gradient);}.cls-3{mask:url(#mask-2);filter:url(#luminosity-noclip-4);}.cls-4{fill:url(#radial-gradient-2);}.cls-5{isolation:isolate;}.cls-6{fill:#0b2e59;}.cls-7{fill:#1a4384;}.cls-8{fill:#0b2e5a;}.cls-9{fill:#0b2f5a;}.cls-10{fill:#0c2f5b;}.cls-11{fill:#0c2f5c;}.cls-12{fill:#0c305c;}.cls-13{fill:#0c305d;}.cls-14{fill:#0d305e;}.cls-15{fill:#0d315f;}.cls-16{fill:#0d3160;}.cls-17{fill:#0e3260;}.cls-18{fill:#0e3261;}.cls-19{fill:#0e3262;}.cls-20{fill:#0e3362;}.cls-21{fill:#0e3363;}.cls-22{fill:#0f3363;}.cls-23{fill:#0f3364;}.cls-24{fill:#0f3464;}.cls-25{fill:#0f3465;}.cls-26{fill:#0f3466;}.cls-27{fill:#103466;}.cls-28{fill:#103567;}.cls-29{fill:#103568;}.cls-30{fill:#103669;}.cls-31{fill:#113669;}.cls-32{fill:#11366a;}.cls-33{fill:#11376a;}.cls-34{fill:#11376b;}.cls-35{fill:#12376c;}.cls-36{fill:#12386d;}.cls-37{fill:#12386e;}.cls-38{fill:#13396f;}.cls-39{fill:#133970;}.cls-40{fill:#133a71;}.cls-41{fill:#143a72;}.cls-42{fill:#143a73;}.cls-43{fill:#143b73;}.cls-44{fill:#143b74;}.cls-45{fill:#153b74;}.cls-46{fill:#153c75;}.cls-47{fill:#153c76;}.cls-48{fill:#153d77;}.cls-49{fill:#163d77;}.cls-50{fill:#163d78;}.cls-51{fill:#163d79;}.cls-52{fill:#163e79;}.cls-53{fill:#163e7a;}.cls-54{fill:#173e7a;}.cls-55{fill:#173e7b;}.cls-56{fill:#173f7b;}.cls-57{fill:#173f7c;}.cls-58{fill:#173f7d;}.cls-59{fill:#18407d;}.cls-60{fill:#18407e;}.cls-61{fill:#18417f;}.cls-62{fill:#194180;}.cls-63{fill:#194181;}.cls-64{fill:#194281;}.cls-65{fill:#194282;}.cls-66{fill:#1a4283;}.cls-67{fill:#1a4383;}.cls-68{mask:url(#mask-3);}.cls-69{fill:url(#radial-gradient-3);}.cls-70{mask:url(#mask-4);}.cls-71{fill:url(#radial-gradient-4);}.cls-72{fill:#203e7a;}.cls-73{fill:#25488e;}.cls-74{fill:#244589;}.cls-75{fill:#234384;}.cls-76{fill:#21407f;}.cls-77{fill:#3a71de;}.cls-78{fill:#386dd7;}.cls-79{fill:#376bd2;}.cls-80{fill:#3668cd;}.cls-81{fill:#3466c8;}.cls-82{fill:#3363c3;}.cls-83{fill:#3261be;}.cls-84{fill:#315eb9;}.cls-85{fill:#2f5cb5;}.cls-86{fill:#2e59b0;}.cls-87{fill:#2d57ab;}.cls-88{fill:#2c54a6;}.cls-89{fill:#2a52a1;}.cls-90{fill:#294f9c;}.cls-91{fill:#284d97;}.cls-92{fill:#264a92;}.cls-93{fill:#3a70dc;}.cls-94{fill:#3b72e0;}.cls-95{fill:#3c75e5;}.cls-96{fill:#3d77ea;}.cls-97{fill:#3f7aef;}.cls-98{fill:#407cf4;}.cls-99{fill:#578cf5;}.cls-100{fill:#6092f6;}.cls-101{fill:#6897f6;}.cls-102{fill:#6e9bf7;}.cls-103{fill:#739ff7;}.cls-104{fill:#78a3f7;}.cls-105{fill:#7da6f7;}.cls-106{fill:#81a8f8;}.cls-107{fill:#85abf8;}.cls-108{fill:#88aef8;}.cls-109{fill:#8cb0f8;}.cls-110{fill:#8fb2f9;}.cls-111{fill:#93b5f9;}.cls-112{fill:#294f9b;}.cls-113{fill:#3e79ee;}.cls-114{filter:url(#luminosity-noclip-2);}.cls-115{filter:url(#luminosity-noclip);}</style><filter id="luminosity-noclip" x="258.48" y="-8730.94" width="481.6" height="32766" filterUnits="userSpaceOnUse" color-interpolation-filters="sRGB"><feFlood flood-color="#fff" result="bg"/><feBlend in="SourceGraphic" in2="bg"/></filter><mask id="mask" x="258.48" y="-8730.94" width="481.6" height="32766" maskUnits="userSpaceOnUse"><g class="cls-115"/></mask><radialGradient id="radial-gradient" cx="454.44" cy="-7316.49" r="311.52" gradientTransform="translate(115.55 9398.55) scale(0.84 1.23)" gradientUnits="userSpaceOnUse"><stop offset="0" stop-color="#fff"/><stop offset="0.16" stop-color="#dcdcdc"/><stop offset="0.51" stop-color="#838383"/><stop offset="1"/></radialGradient><filter id="luminosity-noclip-2" x="97.18" y="-8730.94" width="502.04" height="32766" filterUnits="userSpaceOnUse" color-interpolation-filters="sRGB"><feFlood flood-color="#fff" result="bg"/><feBlend in="SourceGraphic" in2="bg"/></filter><mask id="mask-2" x="97.18" y="-8730.94" width="502.04" height="32766" maskUnits="userSpaceOnUse"><g class="cls-114"/></mask><radialGradient id="radial-gradient-2" cx="267.82" cy="-6770.39" r="311.51" gradientTransform="matrix(0.84, 0.18, -0.23, 1.11, -1449.25, 8413.15)" xlink:href="#radial-gradient"/><filter id="luminosity-noclip-3" x="258.48" y="0" width="481.6" height="824.87" filterUnits="userSpaceOnUse" color-interpolation-filters="sRGB"><feFlood flood-color="#fff" result="bg"/><feBlend in="SourceGraphic" in2="bg"/></filter><mask id="mask-3" x="258.48" y="0" width="481.6" height="824.87" maskUnits="userSpaceOnUse"><g class="cls-1"><path class="cls-2" d="M740.08,412.43c0,227.79-107.81,412.44-240.8,412.44s-240.8-184.65-240.8-412.44S366.29,0,499.28,0,740.08,184.66,740.08,412.43Z"/></g></mask><radialGradient id="radial-gradient-3" cx="454.44" cy="-7316.49" r="311.52" gradientTransform="translate(115.55 9398.55) scale(0.84 1.23)" gradientUnits="userSpaceOnUse"><stop offset="0" stop-color="#203e7a"/><stop offset="0.18" stop-color="#435c8f"/><stop offset="0.58" stop-color="#9ca9c4"/><stop offset="1" stop-color="#fff"/></radialGradient><filter id="luminosity-noclip-4" x="97.18" y="585.24" width="502.04" height="750.7" filterUnits="userSpaceOnUse" color-interpolation-filters="sRGB"><feFlood flood-color="#fff" result="bg"/><feBlend in="SourceGraphic" in2="bg"/></filter><mask id="mask-4" x="97.18" y="585.24" width="502.04" height="750.7" maskUnits="userSpaceOnUse"><g class="cls-3"><path class="cls-4" d="M586.71,1010.62c-43.1,205.43-184.82,349.56-316.54,321.93S66.59,1116,109.69,910.55,294.5,561,426.23,588.63,629.81,805.2,586.71,1010.62Z"/></g></mask><radialGradient id="radial-gradient-4" cx="267.82" cy="-6770.39" r="311.51" gradientTransform="matrix(0.84, 0.18, -0.23, 1.11, -1449.25, 8413.15)" xlink:href="#radial-gradient-3"/></defs><g class="cls-5"><g id="Layer_2" data-name="Layer 2"><g id="Layer_1-2" data-name="Layer 1"><path class="cls-6" d="M1764.87,941.46c127.19-50.08,213.43-156.21,213.43-315.79,0-205.8-143.36-346.3-380.37-346.3H1192V754.55h218.57V476.64h168.89c109.29,0,177.41,52.52,177.41,150.46,0,88-63.86,153.27-173.16,153.27H790.82v-501H572.24v993.49H790.82v-298h743l202.25,298h255.48Z"/><polygon class="cls-7" points="1281.58 1000.07 1192.01 1000.07 1192.01 1272.86 1281.58 1272.86 1321.01 1272.86 1410.58 1272.86 1410.58 1000.07 1321.01 1000.07 1281.58 1000.07"/><path class="cls-6" d="M1764.77,941.56C1892,891.48,1978.2,785.34,1978.2,625.77c0-205.81-143.36-346.3-380.37-346.3H1191.91V754.65h218.57V476.74h168.89c109.29,0,177.41,52.52,177.41,150.46,0,88-63.86,153.27-173.16,153.27H790.72v-501H572.14V1273H790.72v-298h743L1736,1273h255.47Z"/><polygon class="cls-7" points="1281.48 1000.17 1191.91 1000.17 1191.91 1272.96 1281.48 1272.96 1320.91 1272.96 1410.48 1272.96 1410.48 1000.17 1320.91 1000.17 1281.48 1000.17"/><path class="cls-8" d="M1764.67,941.66c127.2-50.08,213.43-156.22,213.43-315.79,0-205.81-143.36-346.31-380.37-346.31H1191.81V754.75h218.57V476.84h168.89c109.3,0,177.41,52.52,177.41,150.46,0,88-63.86,153.27-173.16,153.27H790.62v-501H572v993.5H790.62V975h743l202.25,298h255.47Z"/><polygon class="cls-7" points="1281.38 1000.27 1191.81 1000.27 1191.81 1273.06 1281.38 1273.06 1320.81 1273.06 1410.38 1273.06 1410.38 1000.27 1320.81 1000.27 1281.38 1000.27"/><path class="cls-9" d="M1764.57,941.76C1891.77,891.68,1978,785.54,1978,626c0-205.81-143.36-346.31-380.37-346.31H1191.71V754.85h218.57V476.94h168.89c109.3,0,177.41,52.51,177.41,150.46,0,88-63.86,153.27-173.15,153.27H790.52v-501H572v993.49H790.52v-298h743l202.25,298h255.47Z"/><polygon class="cls-7" points="1281.28 1000.37 1191.71 1000.37 1191.71 1273.15 1281.28 1273.15 1320.71 1273.15 1410.28 1273.15 1410.28 1000.37 1320.71 1000.37 1281.28 1000.37"/><path class="cls-10" d="M1764.47,941.86c127.2-50.08,213.44-156.22,213.44-315.79,0-205.81-143.37-346.31-380.38-346.31H1191.61V755h218.57V477h168.9c109.29,0,177.4,52.51,177.4,150.45,0,88-63.86,153.28-173.15,153.28H790.43v-501H571.85v993.49H790.43v-298h743l202.25,298h255.47Z"/><polygon class="cls-7" points="1281.18 1000.47 1191.61 1000.47 1191.61 1273.25 1281.18 1273.25 1320.61 1273.25 1410.18 1273.25 1410.18 1000.47 1320.61 1000.47 1281.18 1000.47"/><path class="cls-10" d="M1764.37,942c127.2-50.08,213.44-156.22,213.44-315.79,0-205.81-143.37-346.31-380.38-346.31H1191.51V755.05h218.57V477.14H1579c109.29,0,177.4,52.51,177.4,150.45,0,88-63.86,153.28-173.15,153.28H790.33v-501H571.75v993.49H790.33v-298h743l202.25,298h255.47Z"/><polygon class="cls-7" points="1281.09 1000.57 1191.51 1000.57 1191.51 1273.35 1281.09 1273.35 1320.51 1273.35 1410.08 1273.35 1410.08 1000.57 1320.51 1000.57 1281.09 1000.57"/><path class="cls-11" d="M1764.27,942.06c127.2-50.08,213.44-156.22,213.44-315.79,0-205.81-143.37-346.31-380.37-346.31H1191.41V755.15H1410V477.24h168.9c109.29,0,177.41,52.51,177.41,150.45,0,88-63.87,153.28-173.16,153.28H790.23V280H571.65v993.49H790.23v-298h743l202.25,298H1991Z"/><polygon class="cls-7" points="1280.99 1000.67 1191.41 1000.67 1191.41 1273.45 1280.99 1273.45 1320.41 1273.45 1409.98 1273.45 1409.98 1000.67 1320.41 1000.67 1280.99 1000.67"/><path class="cls-11" d="M1764.17,942.16c127.2-50.08,213.44-156.22,213.44-315.79,0-205.81-143.36-346.31-380.37-346.31H1191.31V755.25h218.58V477.34h168.89c109.29,0,177.41,52.51,177.41,150.45,0,88-63.87,153.28-173.16,153.28H790.13v-501H571.55v993.49H790.13v-298h743l202.25,298h255.48Z"/><polygon class="cls-7" points="1280.89 1000.76 1191.31 1000.76 1191.31 1273.55 1280.89 1273.55 1320.31 1273.55 1409.89 1273.55 1409.89 1000.76 1320.31 1000.76 1280.89 1000.76"/><path class="cls-12" d="M1764.07,942.26c127.2-50.08,213.44-156.22,213.44-315.79,0-205.81-143.36-346.31-380.37-346.31H1191.21V755.34h218.58V477.44h168.89c109.29,0,177.41,52.51,177.41,150.45,0,88-63.87,153.27-173.16,153.27H790v-501H571.45v993.49H790v-298h743l202.25,298h255.48Z"/><polygon class="cls-7" points="1280.79 1000.86 1191.21 1000.86 1191.21 1273.65 1280.79 1273.65 1320.21 1273.65 1409.79 1273.65 1409.79 1000.86 1320.21 1000.86 1280.79 1000.86"/><path class="cls-13" d="M1764,942.35c127.19-50.08,213.43-156.21,213.43-315.78,0-205.81-143.36-346.31-380.37-346.31H1191.12V755.44h218.57V477.54h168.89C1687.87,477.54,1756,530.05,1756,628c0,88-63.87,153.27-173.16,153.27H789.93v-501H571.35v993.49H789.93v-298h743l202.25,298h255.48Z"/><polygon class="cls-7" points="1280.69 1000.96 1191.12 1000.96 1191.12 1273.75 1280.69 1273.75 1320.12 1273.75 1409.69 1273.75 1409.69 1000.96 1320.12 1000.96 1280.69 1000.96"/><path class="cls-13" d="M1763.88,942.45c127.19-50.08,213.43-156.21,213.43-315.79,0-205.8-143.36-346.3-380.37-346.3H1191V755.54h218.57V477.63h168.89c109.29,0,177.41,52.52,177.41,150.46,0,88-63.86,153.27-173.16,153.27H789.83v-501H571.25v993.49H789.83v-298h743l202.25,298h255.48Z"/><polygon class="cls-7" points="1280.59 1001.06 1191.02 1001.06 1191.02 1273.85 1280.59 1273.85 1320.02 1273.85 1409.59 1273.85 1409.59 1001.06 1320.02 1001.06 1280.59 1001.06"/><path class="cls-14" d="M1763.78,942.55c127.2-50.08,213.43-156.22,213.43-315.79,0-205.81-143.36-346.3-380.37-346.3H1190.92V755.64h218.57V477.73h168.89c109.29,0,177.41,52.52,177.41,150.46,0,88-63.86,153.27-173.16,153.27H789.73v-501H571.15V1274H789.73v-298h743L1735,1274h255.47Z"/><polygon class="cls-7" points="1280.49 1001.16 1190.92 1001.16 1190.92 1273.95 1280.49 1273.95 1319.92 1273.95 1409.49 1273.95 1409.49 1001.16 1319.92 1001.16 1280.49 1001.16"/><path class="cls-14" d="M1763.68,942.65c127.2-50.08,213.43-156.22,213.43-315.79,0-205.81-143.36-346.31-380.37-346.31H1190.82V755.74h218.57V477.83h168.89c109.3,0,177.41,52.52,177.41,150.46,0,88-63.86,153.27-173.16,153.27H789.63v-501H571.05v993.5H789.63V976h743l202.25,298h255.47Z"/><polygon class="cls-7" points="1280.39 1001.26 1190.82 1001.26 1190.82 1274.05 1280.39 1274.05 1319.82 1274.05 1409.39 1274.05 1409.39 1001.26 1319.82 1001.26 1280.39 1001.26"/><path class="cls-15" d="M1763.58,942.75C1890.78,892.67,1977,786.53,1977,627c0-205.81-143.36-346.31-380.37-346.31H1190.72V755.84h218.57V477.93h168.89c109.3,0,177.41,52.51,177.41,150.46,0,88-63.86,153.27-173.15,153.27H789.53v-501H571v993.49H789.53v-298h743l202.25,298h255.47Z"/><polygon class="cls-7" points="1280.29 1001.36 1190.72 1001.36 1190.72 1274.14 1280.29 1274.14 1319.72 1274.14 1409.29 1274.14 1409.29 1001.36 1319.72 1001.36 1280.29 1001.36"/><path class="cls-15" d="M1763.48,942.85c127.2-50.08,213.44-156.22,213.44-315.79,0-205.81-143.37-346.31-380.38-346.31H1190.62V755.94h218.57V478h168.9c109.29,0,177.4,52.51,177.4,150.45,0,88-63.86,153.28-173.15,153.28H789.44v-501H570.86v993.49H789.44v-298h743l202.25,298h255.47Z"/><polygon class="cls-7" points="1280.19 1001.46 1190.62 1001.46 1190.62 1274.24 1280.19 1274.24 1319.62 1274.24 1409.19 1274.24 1409.19 1001.46 1319.62 1001.46 1280.19 1001.46"/><path class="cls-15" d="M1763.38,943c127.2-50.08,213.44-156.22,213.44-315.79,0-205.81-143.37-346.31-380.38-346.31H1190.52V756h218.57V478.13H1578c109.29,0,177.4,52.51,177.4,150.45,0,88-63.86,153.28-173.15,153.28H789.34v-501H570.76v993.49H789.34v-298h743l202.25,298h255.47Z"/><polygon class="cls-7" points="1280.1 1001.56 1190.52 1001.56 1190.52 1274.34 1280.1 1274.34 1319.52 1274.34 1409.09 1274.34 1409.09 1001.56 1319.52 1001.56 1280.1 1001.56"/><path class="cls-16" d="M1763.28,943.05c127.2-50.08,213.44-156.22,213.44-315.79,0-205.81-143.37-346.31-380.37-346.31H1190.42V756.14H1409V478.23h168.9c109.29,0,177.41,52.51,177.41,150.45,0,88-63.87,153.28-173.16,153.28H789.24V281H570.66v993.49H789.24v-298h743l202.25,298H1990Z"/><polygon class="cls-7" points="1280 1001.66 1190.42 1001.66 1190.42 1274.44 1280 1274.44 1319.42 1274.44 1408.99 1274.44 1408.99 1001.66 1319.42 1001.66 1280 1001.66"/><path class="cls-17" d="M1763.18,943.15c127.2-50.08,213.44-156.22,213.44-315.79,0-205.81-143.36-346.31-380.37-346.31H1190.32V756.24H1408.9V478.33h168.89c109.29,0,177.41,52.51,177.41,150.45,0,88-63.87,153.28-173.16,153.28H789.14v-501H570.56v993.49H789.14v-298h743l202.25,298h255.48Z"/><polygon class="cls-7" points="1279.9 1001.75 1190.32 1001.75 1190.32 1274.54 1279.9 1274.54 1319.32 1274.54 1408.9 1274.54 1408.9 1001.75 1319.32 1001.75 1279.9 1001.75"/><path class="cls-18" d="M1763.08,943.25c127.2-50.08,213.44-156.22,213.44-315.79,0-205.81-143.36-346.31-380.37-346.31H1190.22V756.33H1408.8V478.43h168.89c109.29,0,177.41,52.51,177.41,150.45,0,88-63.87,153.27-173.16,153.27H789v-501H570.46v993.49H789v-298h743l202.25,298h255.48Z"/><polygon class="cls-7" points="1279.8 1001.85 1190.22 1001.85 1190.22 1274.64 1279.8 1274.64 1319.22 1274.64 1408.8 1274.64 1408.8 1001.85 1319.22 1001.85 1279.8 1001.85"/><path class="cls-18" d="M1763,943.34c127.19-50.08,213.43-156.21,213.43-315.78,0-205.81-143.36-346.31-380.37-346.31H1190.13V756.43H1408.7V478.53h168.89C1686.88,478.53,1755,531,1755,629c0,88-63.87,153.27-173.16,153.27H788.94v-501H570.36v993.49H788.94v-298h743l202.25,298h255.48Z"/><polygon class="cls-7" points="1279.7 1001.95 1190.13 1001.95 1190.13 1274.74 1279.7 1274.74 1319.13 1274.74 1408.7 1274.74 1408.7 1001.95 1319.13 1001.95 1279.7 1001.95"/><path class="cls-19" d="M1762.89,943.44c127.19-50.08,213.43-156.21,213.43-315.79,0-205.8-143.36-346.3-380.37-346.3H1190V756.53H1408.6V478.62h168.89c109.29,0,177.41,52.52,177.41,150.46,0,88-63.86,153.27-173.16,153.27H788.84v-501H570.26v993.49H788.84v-298h743l202.25,298h255.48Z"/><polygon class="cls-7" points="1279.6 1002.05 1190.03 1002.05 1190.03 1274.84 1279.6 1274.84 1319.03 1274.84 1408.6 1274.84 1408.6 1002.05 1319.03 1002.05 1279.6 1002.05"/><path class="cls-19" d="M1762.79,943.54c127.2-50.08,213.43-156.22,213.43-315.79,0-205.81-143.36-346.3-380.37-346.3H1189.93V756.63H1408.5V478.72h168.89c109.29,0,177.41,52.52,177.41,150.46,0,88-63.86,153.27-173.16,153.27H788.74v-501H570.16v993.49H788.74v-298h743l202.26,298h255.47Z"/><polygon class="cls-7" points="1279.5 1002.15 1189.93 1002.15 1189.93 1274.94 1279.5 1274.94 1318.93 1274.94 1408.5 1274.94 1408.5 1002.15 1318.93 1002.15 1279.5 1002.15"/><path class="cls-20" d="M1762.69,943.64c127.2-50.08,213.43-156.22,213.43-315.79,0-205.81-143.36-346.31-380.37-346.31H1189.83V756.73H1408.4V478.82h168.89c109.29,0,177.41,52.52,177.41,150.46,0,88-63.86,153.27-173.16,153.27H788.64v-501H570.06V1275H788.64V977h743l202.25,298h255.47Z"/><polygon class="cls-7" points="1279.4 1002.25 1189.83 1002.25 1189.83 1275.04 1279.4 1275.04 1318.83 1275.04 1408.4 1275.04 1408.4 1002.25 1318.83 1002.25 1279.4 1002.25"/><path class="cls-21" d="M1762.59,943.74C1889.79,893.66,1976,787.52,1976,628c0-205.81-143.36-346.31-380.37-346.31H1189.73V756.83H1408.3V478.92h168.89c109.3,0,177.41,52.51,177.41,150.46,0,88-63.86,153.27-173.15,153.27H788.54v-501H570v993.49H788.54v-298h743l202.25,298h255.47Z"/><polygon class="cls-7" points="1279.3 1002.35 1189.73 1002.35 1189.73 1275.13 1279.3 1275.13 1318.73 1275.13 1408.3 1275.13 1408.3 1002.35 1318.73 1002.35 1279.3 1002.35"/><path class="cls-22" d="M1762.49,943.84c127.2-50.08,213.44-156.22,213.44-315.79,0-205.81-143.37-346.31-380.38-346.31H1189.63V756.93H1408.2V479h168.9c109.29,0,177.4,52.51,177.4,150.45,0,88-63.86,153.28-173.15,153.28H788.44v-501H569.87v993.49H788.44v-298h743l202.25,298h255.47Z"/><polygon class="cls-7" points="1279.2 1002.45 1189.63 1002.45 1189.63 1275.23 1279.2 1275.23 1318.63 1275.23 1408.2 1275.23 1408.2 1002.45 1318.63 1002.45 1279.2 1002.45"/><path class="cls-23" d="M1762.39,943.94c127.2-50.08,213.44-156.22,213.44-315.79,0-205.81-143.37-346.31-380.38-346.31H1189.53V757H1408.1V479.12H1577c109.29,0,177.4,52.51,177.4,150.45,0,88-63.86,153.28-173.15,153.28H788.35v-501H569.77v993.49H788.35v-298h743l202.25,298h255.47Z"/><polygon class="cls-7" points="1279.11 1002.55 1189.53 1002.55 1189.53 1275.33 1279.11 1275.33 1318.53 1275.33 1408.1 1275.33 1408.1 1002.55 1318.53 1002.55 1279.11 1002.55"/><path class="cls-23" d="M1762.29,944c127.2-50.08,213.44-156.22,213.44-315.79,0-205.81-143.37-346.31-380.37-346.31H1189.43V757.13H1408V479.22h168.9c109.29,0,177.41,52.51,177.41,150.45,0,88-63.87,153.28-173.16,153.28H788.25v-501H569.67v993.49H788.25v-298h743l202.25,298H1989Z"/><polygon class="cls-7" points="1279.01 1002.65 1189.43 1002.65 1189.43 1275.43 1279.01 1275.43 1318.43 1275.43 1408.01 1275.43 1408.01 1002.65 1318.43 1002.65 1279.01 1002.65"/><path class="cls-24" d="M1762.19,944.14c127.2-50.08,213.44-156.22,213.44-315.79,0-205.81-143.36-346.31-380.37-346.31H1189.33V757.23h218.58V479.32H1576.8c109.29,0,177.41,52.51,177.41,150.45,0,88-63.87,153.28-173.16,153.28H788.15V282H569.57v993.49H788.15v-298h743l202.25,298h255.48Z"/><polygon class="cls-7" points="1278.91 1002.75 1189.33 1002.75 1189.33 1275.53 1278.91 1275.53 1318.33 1275.53 1407.91 1275.53 1407.91 1002.75 1318.33 1002.75 1278.91 1002.75"/><path class="cls-25" d="M1762.09,944.24c127.2-50.08,213.44-156.22,213.44-315.79,0-205.81-143.36-346.31-380.37-346.31H1189.23V757.32h218.58V479.42H1576.7c109.29,0,177.41,52.51,177.41,150.45,0,88-63.87,153.27-173.16,153.27H788.05v-501H569.47v993.49H788.05v-298h743l202.25,298h255.48Z"/><polygon class="cls-7" points="1278.81 1002.84 1189.23 1002.84 1189.23 1275.63 1278.81 1275.63 1318.23 1275.63 1407.81 1275.63 1407.81 1002.84 1318.23 1002.84 1278.81 1002.84"/><path class="cls-25" d="M1762,944.34c127.19-50.09,213.43-156.22,213.43-315.79,0-205.81-143.36-346.31-380.37-346.31H1189.14V757.42h218.57V479.52H1576.6C1685.89,479.52,1754,532,1754,630c0,88-63.87,153.27-173.16,153.27H788v-501H569.37v993.49H788v-298h743l202.25,298h255.48Z"/><polygon class="cls-7" points="1278.71 1002.94 1189.14 1002.94 1189.14 1275.73 1278.71 1275.73 1318.13 1275.73 1407.71 1275.73 1407.71 1002.94 1318.13 1002.94 1278.71 1002.94"/><path class="cls-26" d="M1761.9,944.43c127.19-50.08,213.43-156.21,213.43-315.79,0-205.8-143.36-346.3-380.37-346.3H1189V757.52h218.57V479.61H1576.5c109.29,0,177.41,52.52,177.41,150.46,0,88-63.86,153.27-173.16,153.27H787.85v-501H569.27v993.49H787.85v-298h743l202.25,298h255.48Z"/><polygon class="cls-7" points="1278.61 1003.04 1189.04 1003.04 1189.04 1275.83 1278.61 1275.83 1318.04 1275.83 1407.61 1275.83 1407.61 1003.04 1318.04 1003.04 1278.61 1003.04"/><path class="cls-27" d="M1761.8,944.53c127.2-50.08,213.43-156.22,213.43-315.79,0-205.8-143.36-346.3-380.37-346.3H1188.94V757.62h218.57V479.71H1576.4c109.29,0,177.41,52.52,177.41,150.46,0,88-63.86,153.27-173.16,153.27H787.75v-501H569.17v993.49H787.75v-298h743l202.26,298h255.47Z"/><polygon class="cls-7" points="1278.51 1003.14 1188.94 1003.14 1188.94 1275.93 1278.51 1275.93 1317.94 1275.93 1407.51 1275.93 1407.51 1003.14 1317.94 1003.14 1278.51 1003.14"/><path class="cls-28" d="M1761.7,944.63c127.2-50.08,213.43-156.22,213.43-315.79,0-205.81-143.36-346.31-380.37-346.31H1188.84V757.72h218.57V479.81H1576.3c109.29,0,177.41,52.52,177.41,150.46,0,88-63.86,153.27-173.16,153.27H787.65v-501H569.07V1276H787.65V978h743l202.25,298h255.47Z"/><polygon class="cls-7" points="1278.41 1003.24 1188.84 1003.24 1188.84 1276.03 1278.41 1276.03 1317.84 1276.03 1407.41 1276.03 1407.41 1003.24 1317.84 1003.24 1278.41 1003.24"/><path class="cls-28" d="M1761.6,944.73C1888.8,894.65,1975,788.51,1975,628.94c0-205.81-143.36-346.31-380.37-346.31H1188.74V757.82h218.57V479.91H1576.2c109.3,0,177.41,52.51,177.41,150.46,0,88-63.86,153.27-173.15,153.27H787.55v-501H569v993.49H787.55v-298h743l202.25,298h255.47Z"/><polygon class="cls-7" points="1278.31 1003.34 1188.74 1003.34 1188.74 1276.13 1278.31 1276.13 1317.74 1276.13 1407.31 1276.13 1407.31 1003.34 1317.74 1003.34 1278.31 1003.34"/><path class="cls-28" d="M1761.5,944.83c127.2-50.08,213.44-156.22,213.44-315.79,0-205.81-143.37-346.31-380.38-346.31H1188.64V757.92h218.57V480h168.9c109.29,0,177.4,52.51,177.4,150.45,0,88-63.86,153.28-173.15,153.28H787.45v-501H568.88v993.49H787.45v-298h743l202.25,298h255.47Z"/><polygon class="cls-7" points="1278.21 1003.44 1188.64 1003.44 1188.64 1276.22 1278.21 1276.22 1317.64 1276.22 1407.21 1276.22 1407.21 1003.44 1317.64 1003.44 1278.21 1003.44"/><path class="cls-29" d="M1761.4,944.93c127.2-50.08,213.44-156.22,213.44-315.79,0-205.81-143.37-346.31-380.38-346.31H1188.54V758h218.57V480.11H1576c109.29,0,177.4,52.51,177.4,150.45,0,88-63.86,153.28-173.15,153.28H787.36v-501H568.78v993.49H787.36v-298h743l202.25,298h255.47Z"/><polygon class="cls-7" points="1278.12 1003.54 1188.54 1003.54 1188.54 1276.32 1278.12 1276.32 1317.54 1276.32 1407.11 1276.32 1407.11 1003.54 1317.54 1003.54 1278.12 1003.54"/><path class="cls-29" d="M1761.3,945c127.2-50.08,213.44-156.22,213.44-315.79,0-205.81-143.37-346.31-380.37-346.31H1188.44V758.12H1407V480.21h168.9c109.29,0,177.41,52.51,177.41,150.45,0,88-63.87,153.28-173.16,153.28H787.26v-501H568.68v993.49H787.26v-298h743l202.25,298H1988Z"/><polygon class="cls-7" points="1278.02 1003.64 1188.44 1003.64 1188.44 1276.42 1278.02 1276.42 1317.44 1276.42 1407.02 1276.42 1407.02 1003.64 1317.44 1003.64 1278.02 1003.64"/><path class="cls-30" d="M1761.2,945.13c127.2-50.08,213.44-156.22,213.44-315.79,0-205.81-143.37-346.31-380.37-346.31H1188.34V758.22h218.58V480.31h168.89c109.29,0,177.41,52.51,177.41,150.45,0,88-63.87,153.28-173.16,153.28H787.16V283H568.58v993.49H787.16v-298h743l202.25,298H1987.9Z"/><polygon class="cls-7" points="1277.92 1003.74 1188.34 1003.74 1188.34 1276.52 1277.92 1276.52 1317.34 1276.52 1406.92 1276.52 1406.92 1003.74 1317.34 1003.74 1277.92 1003.74"/><path class="cls-31" d="M1761.1,945.23c127.2-50.08,213.44-156.22,213.44-315.79,0-205.81-143.36-346.31-380.37-346.31H1188.24V758.31h218.58V480.41h168.89c109.29,0,177.41,52.51,177.41,150.45,0,88-63.87,153.27-173.16,153.27H787.06v-501H568.48v993.49H787.06v-298h743l202.25,298H1987.8Z"/><polygon class="cls-7" points="1277.82 1003.84 1188.24 1003.84 1188.24 1276.62 1277.82 1276.62 1317.24 1276.62 1406.82 1276.62 1406.82 1003.84 1317.24 1003.84 1277.82 1003.84"/><path class="cls-32" d="M1761,945.33c127.19-50.09,213.43-156.22,213.43-315.79,0-205.81-143.36-346.31-380.37-346.31H1188.15V758.41h218.57V480.51h168.89C1684.9,480.51,1753,533,1753,631c0,88-63.87,153.27-173.16,153.27H787v-501H568.38v993.49H787v-298h743l202.25,298H1987.7Z"/><polygon class="cls-7" points="1277.72 1003.93 1188.15 1003.93 1188.15 1276.72 1277.72 1276.72 1317.14 1276.72 1406.72 1276.72 1406.72 1003.93 1317.14 1003.93 1277.72 1003.93"/><path class="cls-32" d="M1760.91,945.42c127.19-50.08,213.43-156.21,213.43-315.79,0-205.8-143.36-346.3-380.37-346.3H1188.05V758.51h218.57V480.6h168.89c109.29,0,177.41,52.52,177.41,150.46,0,88-63.86,153.27-173.16,153.27H786.86v-501H568.28v993.49H786.86v-298h743l202.25,298H1987.6Z"/><polygon class="cls-7" points="1277.62 1004.03 1188.05 1004.03 1188.05 1276.82 1277.62 1276.82 1317.05 1276.82 1406.62 1276.82 1406.62 1004.03 1317.05 1004.03 1277.62 1004.03"/><path class="cls-33" d="M1760.81,945.52c127.2-50.08,213.43-156.22,213.43-315.79,0-205.8-143.36-346.3-380.37-346.3H1188V758.61h218.57V480.7h168.89c109.29,0,177.41,52.52,177.41,150.46,0,88-63.86,153.27-173.16,153.27H786.76v-501H568.18v993.49H786.76v-298h743l202.26,298H1987.5Z"/><polygon class="cls-7" points="1277.52 1004.13 1187.95 1004.13 1187.95 1276.92 1277.52 1276.92 1316.95 1276.92 1406.52 1276.92 1406.52 1004.13 1316.95 1004.13 1277.52 1004.13"/><path class="cls-34" d="M1760.71,945.62c127.2-50.08,213.43-156.22,213.43-315.79,0-205.81-143.36-346.31-380.37-346.31H1187.85V758.71h218.57V480.8h168.89c109.29,0,177.41,52.52,177.41,150.46,0,88-63.86,153.27-173.16,153.27H786.66v-501H568.08V1277H786.66V979h743l202.25,298H1987.4Z"/><polygon class="cls-7" points="1277.42 1004.23 1187.85 1004.23 1187.85 1277.02 1277.42 1277.02 1316.85 1277.02 1406.42 1277.02 1406.42 1004.23 1316.85 1004.23 1277.42 1004.23"/><path class="cls-34" d="M1760.61,945.72C1887.81,895.64,1974,789.5,1974,629.93c0-205.81-143.36-346.31-380.37-346.31H1187.75V758.81h218.57V480.9h168.89c109.3,0,177.41,52.51,177.41,150.46,0,88-63.86,153.27-173.15,153.27H786.56v-501H568v993.5H786.56v-298h743l202.25,298H1987.3Z"/><polygon class="cls-7" points="1277.32 1004.33 1187.75 1004.33 1187.75 1277.12 1277.32 1277.12 1316.75 1277.12 1406.32 1277.12 1406.32 1004.33 1316.75 1004.33 1277.32 1004.33"/><path class="cls-35" d="M1760.51,945.82C1887.71,895.74,1974,789.6,1974,630c0-205.81-143.37-346.31-380.38-346.31H1187.65V758.91h218.57V481h168.9c109.29,0,177.4,52.51,177.4,150.45,0,88-63.86,153.28-173.15,153.28H786.46v-501H567.89v993.49H786.46v-298h743l202.25,298H1987.2Z"/><polygon class="cls-7" points="1277.22 1004.43 1187.65 1004.43 1187.65 1277.21 1277.22 1277.21 1316.65 1277.21 1406.22 1277.21 1406.22 1004.43 1316.65 1004.43 1277.22 1004.43"/><path class="cls-35" d="M1760.41,945.92c127.2-50.08,213.44-156.22,213.44-315.79,0-205.81-143.37-346.31-380.38-346.31H1187.55V759h218.57V481.1H1575c109.29,0,177.4,52.51,177.4,150.45,0,88-63.86,153.28-173.15,153.28H786.37v-501H567.79v993.49H786.37v-298h743l202.25,298H1987.1Z"/><polygon class="cls-7" points="1277.13 1004.53 1187.55 1004.53 1187.55 1277.31 1277.13 1277.31 1316.55 1277.31 1406.12 1277.31 1406.12 1004.53 1316.55 1004.53 1277.13 1004.53"/><path class="cls-36" d="M1760.31,946c127.2-50.08,213.44-156.22,213.44-315.79,0-205.81-143.37-346.31-380.38-346.31H1187.45V759.11H1406V481.2h168.9c109.29,0,177.41,52.51,177.41,150.45,0,88-63.87,153.28-173.16,153.28H786.27v-501H567.69v993.49H786.27v-298h743l202.25,298H1987Z"/><polygon class="cls-7" points="1277.03 1004.63 1187.45 1004.63 1187.45 1277.41 1277.03 1277.41 1316.45 1277.41 1406.02 1277.41 1406.02 1004.63 1316.45 1004.63 1277.03 1004.63"/><path class="cls-36" d="M1760.21,946.12c127.2-50.08,213.44-156.22,213.44-315.79,0-205.81-143.37-346.31-380.37-346.31H1187.35V759.21h218.58V481.3h168.89c109.29,0,177.41,52.51,177.41,150.45,0,88-63.87,153.28-173.16,153.28H786.17V284H567.59v993.49H786.17v-298h743l202.25,298h255.48Z"/><polygon class="cls-7" points="1276.93 1004.73 1187.35 1004.73 1187.35 1277.51 1276.93 1277.51 1316.35 1277.51 1405.92 1277.51 1405.92 1004.73 1316.35 1004.73 1276.93 1004.73"/><path class="cls-36" d="M1760.11,946.22c127.2-50.08,213.44-156.22,213.44-315.79,0-205.81-143.36-346.31-380.37-346.31H1187.25V759.3h218.58V481.4h168.89c109.29,0,177.41,52.51,177.41,150.45,0,88-63.87,153.27-173.16,153.27H786.07v-501H567.49v993.49H786.07v-298h743l202.25,298h255.48Z"/><polygon class="cls-7" points="1276.83 1004.83 1187.25 1004.83 1187.25 1277.61 1276.83 1277.61 1316.25 1277.61 1405.83 1277.61 1405.83 1004.83 1316.25 1004.83 1276.83 1004.83"/><path class="cls-37" d="M1760,946.32c127.2-50.09,213.44-156.22,213.44-315.79,0-205.81-143.36-346.31-380.37-346.31H1187.16V759.4h218.57V481.5h168.89C1683.91,481.5,1752,534,1752,632c0,88-63.87,153.27-173.16,153.27H786v-501H567.39v993.49H786v-298h743l202.25,298h255.48Z"/><polygon class="cls-7" points="1276.73 1004.92 1187.15 1004.92 1187.15 1277.71 1276.73 1277.71 1316.15 1277.71 1405.73 1277.71 1405.73 1004.92 1316.15 1004.92 1276.73 1004.92"/><path class="cls-37" d="M1759.92,946.41c127.19-50.08,213.43-156.21,213.43-315.79,0-205.8-143.36-346.3-380.37-346.3H1187.06V759.5h218.57V481.59h168.89c109.29,0,177.41,52.52,177.41,150.46,0,88-63.86,153.27-173.16,153.27H785.87v-501H567.29v993.49H785.87v-298h743l202.25,298h255.48Z"/><polygon class="cls-7" points="1276.63 1005.02 1187.06 1005.02 1187.06 1277.81 1276.63 1277.81 1316.06 1277.81 1405.63 1277.81 1405.63 1005.02 1316.06 1005.02 1276.63 1005.02"/><path class="cls-38" d="M1759.82,946.51c127.2-50.08,213.43-156.21,213.43-315.79,0-205.8-143.36-346.3-380.37-346.3H1187V759.6h218.57V481.69h168.89c109.29,0,177.41,52.52,177.41,150.46,0,88-63.86,153.27-173.16,153.27H785.77v-501H567.19v993.49H785.77v-298h743l202.26,298h255.47Z"/><polygon class="cls-7" points="1276.53 1005.12 1186.96 1005.12 1186.96 1277.91 1276.53 1277.91 1315.96 1277.91 1405.53 1277.91 1405.53 1005.12 1315.96 1005.12 1276.53 1005.12"/><path class="cls-38" d="M1759.72,946.61c127.2-50.08,213.43-156.22,213.43-315.79,0-205.81-143.36-346.31-380.37-346.31H1186.86V759.7h218.57V481.79h168.89c109.29,0,177.41,52.52,177.41,150.46,0,88-63.86,153.27-173.16,153.27H785.67v-501H567.09V1278H785.67V980h743l202.26,298h255.47Z"/><polygon class="cls-7" points="1276.43 1005.22 1186.86 1005.22 1186.86 1278.01 1276.43 1278.01 1315.86 1278.01 1405.43 1278.01 1405.43 1005.22 1315.86 1005.22 1276.43 1005.22"/><path class="cls-39" d="M1759.62,946.71c127.2-50.08,213.43-156.22,213.43-315.79,0-205.81-143.36-346.31-380.37-346.31H1186.76V759.8h218.57V481.89h168.89c109.3,0,177.41,52.51,177.41,150.46,0,88-63.86,153.27-173.15,153.27H785.57v-501H567v993.5H785.57v-298h743l202.25,298h255.47Z"/><polygon class="cls-7" points="1276.33 1005.32 1186.76 1005.32 1186.76 1278.11 1276.33 1278.11 1315.76 1278.11 1405.33 1278.11 1405.33 1005.32 1315.76 1005.32 1276.33 1005.32"/><path class="cls-39" d="M1759.52,946.81C1886.72,896.73,1973,790.59,1973,631c0-205.81-143.37-346.31-380.38-346.31H1186.66V759.9h218.57V482h168.9c109.29,0,177.4,52.51,177.4,150.45,0,88-63.86,153.28-173.15,153.28H785.47v-501H566.9V1278.2H785.47v-298h743l202.25,298h255.47Z"/><polygon class="cls-7" points="1276.23 1005.42 1186.66 1005.42 1186.66 1278.2 1276.23 1278.2 1315.66 1278.2 1405.23 1278.2 1405.23 1005.42 1315.66 1005.42 1276.23 1005.42"/><path class="cls-39" d="M1759.42,946.91c127.2-50.08,213.44-156.22,213.44-315.79,0-205.81-143.37-346.31-380.38-346.31H1186.56V760h218.57V482.09H1574c109.29,0,177.4,52.51,177.4,150.45,0,88-63.86,153.28-173.15,153.28H785.38v-501H566.8V1278.3H785.38v-298h743l202.25,298h255.47Z"/><polygon class="cls-7" points="1276.13 1005.52 1186.56 1005.52 1186.56 1278.3 1276.13 1278.3 1315.56 1278.3 1405.13 1278.3 1405.13 1005.52 1315.56 1005.52 1276.13 1005.52"/><path class="cls-40" d="M1759.32,947c127.2-50.08,213.44-156.22,213.44-315.79,0-205.81-143.37-346.31-380.38-346.31H1186.46V760.1H1405V482.19h168.9c109.29,0,177.41,52.51,177.41,150.45,0,88-63.87,153.28-173.16,153.28H785.28v-501H566.7V1278.4H785.28v-298h743l202.25,298H1986Z"/><polygon class="cls-7" points="1276.04 1005.62 1186.46 1005.62 1186.46 1278.4 1276.04 1278.4 1315.46 1278.4 1405.03 1278.4 1405.03 1005.62 1315.46 1005.62 1276.04 1005.62"/><path class="cls-40" d="M1759.22,947.11c127.2-50.08,213.44-156.22,213.44-315.79,0-205.81-143.37-346.31-380.37-346.31H1186.36V760.2h218.58V482.29h168.89c109.29,0,177.41,52.51,177.41,150.45,0,88-63.87,153.28-173.16,153.28H785.18V285H566.6V1278.5H785.18v-298h743l202.25,298h255.48Z"/><polygon class="cls-7" points="1275.94 1005.72 1186.36 1005.72 1186.36 1278.5 1275.94 1278.5 1315.36 1278.5 1404.93 1278.5 1404.93 1005.72 1315.36 1005.72 1275.94 1005.72"/><path class="cls-41" d="M1759.12,947.21c127.2-50.08,213.44-156.22,213.44-315.79,0-205.81-143.36-346.31-380.37-346.31H1186.26V760.29h218.58V482.39h168.89c109.29,0,177.41,52.51,177.41,150.45,0,88-63.87,153.28-173.16,153.28H785.08v-501H566.5V1278.6H785.08v-298h743l202.25,298h255.48Z"/><polygon class="cls-7" points="1275.84 1005.82 1186.26 1005.82 1186.26 1278.6 1275.84 1278.6 1315.26 1278.6 1404.84 1278.6 1404.84 1005.82 1315.26 1005.82 1275.84 1005.82"/><path class="cls-41" d="M1759,947.31c127.2-50.09,213.44-156.22,213.44-315.79,0-205.81-143.36-346.31-380.37-346.31H1186.17V760.39h218.57V482.49h168.89C1682.92,482.49,1751,535,1751,632.94c0,88-63.87,153.27-173.16,153.27H785v-501H566.4V1278.7H785v-298h743l202.25,298h255.48Z"/><polygon class="cls-7" points="1275.74 1005.91 1186.16 1005.91 1186.16 1278.7 1275.74 1278.7 1315.16 1278.7 1404.74 1278.7 1404.74 1005.91 1315.16 1005.91 1275.74 1005.91"/><path class="cls-42" d="M1758.93,947.4c127.19-50.08,213.43-156.21,213.43-315.78,0-205.81-143.36-346.31-380.37-346.31H1186.07V760.49h218.57V482.58h168.89c109.29,0,177.41,52.52,177.41,150.46,0,88-63.86,153.27-173.16,153.27H784.88v-501H566.3V1278.8H784.88v-298h743l202.25,298h255.48Z"/><polygon class="cls-7" points="1275.64 1006.01 1186.07 1006.01 1186.07 1278.8 1275.64 1278.8 1315.07 1278.8 1404.64 1278.8 1404.64 1006.01 1315.07 1006.01 1275.64 1006.01"/><path class="cls-43" d="M1758.83,947.5c127.2-50.08,213.43-156.21,213.43-315.79,0-205.8-143.36-346.3-380.37-346.3H1186V760.59h218.57V482.68h168.89c109.29,0,177.41,52.52,177.41,150.46,0,88-63.86,153.27-173.16,153.27H784.78v-501H566.2V1278.9H784.78v-298h743l202.26,298h255.47Z"/><polygon class="cls-7" points="1275.54 1006.11 1185.97 1006.11 1185.97 1278.9 1275.54 1278.9 1314.97 1278.9 1404.54 1278.9 1404.54 1006.11 1314.97 1006.11 1275.54 1006.11"/><path class="cls-43" d="M1758.73,947.6c127.2-50.08,213.43-156.22,213.43-315.79,0-205.81-143.36-346.31-380.37-346.31H1185.87V760.69h218.57V482.78h168.89c109.29,0,177.41,52.52,177.41,150.46,0,88-63.86,153.27-173.16,153.27H784.68v-501H566.1V1279H784.68V981h743L1730,1279h255.47Z"/><polygon class="cls-7" points="1275.44 1006.21 1185.87 1006.21 1185.87 1279 1275.44 1279 1314.87 1279 1404.44 1279 1404.44 1006.21 1314.87 1006.21 1275.44 1006.21"/><path class="cls-44" d="M1758.63,947.7c127.2-50.08,213.43-156.22,213.43-315.79,0-205.81-143.36-346.31-380.37-346.31H1185.77V760.79h218.57V482.88h168.89c109.3,0,177.41,52.51,177.41,150.46,0,88-63.86,153.27-173.15,153.27H784.58v-501H566v993.5H784.58v-298h743l202.25,298h255.47Z"/><polygon class="cls-7" points="1275.34 1006.31 1185.77 1006.31 1185.77 1279.1 1275.34 1279.1 1314.77 1279.1 1404.34 1279.1 1404.34 1006.31 1314.77 1006.31 1275.34 1006.31"/><path class="cls-45" d="M1758.53,947.8C1885.73,897.72,1972,791.58,1972,632c0-205.81-143.36-346.31-380.37-346.31H1185.67V760.89h218.57V483h168.9c109.29,0,177.4,52.51,177.4,150.45,0,88-63.86,153.28-173.15,153.28H784.48v-501H565.91v993.49H784.48v-298h743l202.25,298h255.47Z"/><polygon class="cls-7" points="1275.24 1006.41 1185.67 1006.41 1185.67 1279.19 1275.24 1279.19 1314.67 1279.19 1404.24 1279.19 1404.24 1006.41 1314.67 1006.41 1275.24 1006.41"/><path class="cls-46" d="M1758.43,947.9c127.2-50.08,213.44-156.22,213.44-315.79,0-205.81-143.37-346.31-380.38-346.31H1185.57V761h218.57V483.08H1573c109.29,0,177.4,52.51,177.4,150.45,0,88-63.86,153.28-173.15,153.28H784.39v-501H565.81v993.49H784.39v-298h743l202.25,298h255.47Z"/><polygon class="cls-7" points="1275.14 1006.51 1185.57 1006.51 1185.57 1279.29 1275.14 1279.29 1314.57 1279.29 1404.14 1279.29 1404.14 1006.51 1314.57 1006.51 1275.14 1006.51"/><path class="cls-46" d="M1758.33,948c127.2-50.08,213.44-156.22,213.44-315.79,0-205.81-143.37-346.31-380.38-346.31H1185.47V761.09H1404V483.18h168.9c109.29,0,177.41,52.51,177.41,150.45,0,88-63.87,153.28-173.16,153.28H784.29v-501H565.71v993.49H784.29v-298h743l202.25,298H1985Z"/><polygon class="cls-7" points="1275.05 1006.61 1185.47 1006.61 1185.47 1279.39 1275.05 1279.39 1314.47 1279.39 1404.04 1279.39 1404.04 1006.61 1314.47 1006.61 1275.05 1006.61"/><path class="cls-47" d="M1758.23,948.1c127.2-50.08,213.44-156.22,213.44-315.79C1971.67,426.5,1828.3,286,1591.3,286H1185.37V761.19H1404V483.28h168.89c109.29,0,177.41,52.51,177.41,150.45,0,88-63.87,153.28-173.16,153.28H784.19V286H565.61v993.49H784.19v-298h743l202.25,298h255.48Z"/><polygon class="cls-7" points="1274.95 1006.71 1185.37 1006.71 1185.37 1279.49 1274.95 1279.49 1314.37 1279.49 1403.94 1279.49 1403.94 1006.71 1314.37 1006.71 1274.95 1006.71"/><path class="cls-47" d="M1758.13,948.2c127.2-50.08,213.44-156.22,213.44-315.79,0-205.81-143.36-346.31-380.37-346.31H1185.27V761.28h218.58V483.38h168.89c109.29,0,177.41,52.51,177.41,150.45,0,88-63.87,153.28-173.16,153.28H784.09v-501H565.51v993.49H784.09v-298h743l202.25,298h255.48Z"/><polygon class="cls-7" points="1274.85 1006.8 1185.27 1006.8 1185.27 1279.59 1274.85 1279.59 1314.27 1279.59 1403.85 1279.59 1403.85 1006.8 1314.27 1006.8 1274.85 1006.8"/><path class="cls-47" d="M1758,948.3c127.2-50.09,213.44-156.22,213.44-315.79,0-205.81-143.36-346.31-380.37-346.31H1185.18V761.38h218.57V483.48h168.89c109.29,0,177.41,52.51,177.41,150.45,0,88-63.87,153.27-173.16,153.27H784v-501H565.41v993.49H784v-298h743l202.25,298h255.48Z"/><polygon class="cls-7" points="1274.75 1006.9 1185.17 1006.9 1185.17 1279.69 1274.75 1279.69 1314.17 1279.69 1403.75 1279.69 1403.75 1006.9 1314.17 1006.9 1274.75 1006.9"/><path class="cls-48" d="M1757.94,948.39c127.19-50.08,213.43-156.21,213.43-315.78C1971.37,426.8,1828,286.3,1591,286.3H1185.08V761.48h218.57V483.57h168.89C1681.83,483.57,1750,536.09,1750,634c0,88-63.87,153.27-173.16,153.27H783.89v-501H565.31v993.49H783.89v-298h743l202.25,298h255.48Z"/><polygon class="cls-7" points="1274.65 1007 1185.08 1007 1185.08 1279.79 1274.65 1279.79 1314.08 1279.79 1403.65 1279.79 1403.65 1007 1314.08 1007 1274.65 1007"/><path class="cls-49" d="M1757.84,948.49c127.2-50.08,213.43-156.21,213.43-315.79,0-205.8-143.36-346.3-380.37-346.3H1185V761.58h218.57V483.67h168.89c109.29,0,177.41,52.52,177.41,150.46,0,88-63.86,153.27-173.16,153.27H783.79v-501H565.21v993.49H783.79v-298h743l202.25,298h255.48Z"/><polygon class="cls-7" points="1274.55 1007.1 1184.98 1007.1 1184.98 1279.89 1274.55 1279.89 1313.98 1279.89 1403.55 1279.89 1403.55 1007.1 1313.98 1007.1 1274.55 1007.1"/><path class="cls-50" d="M1757.74,948.59c127.2-50.08,213.43-156.22,213.43-315.79,0-205.81-143.36-346.31-380.37-346.31H1184.88V761.68h218.57V483.77h168.89c109.29,0,177.41,52.52,177.41,150.46,0,88-63.86,153.27-173.16,153.27H783.69v-501H565.11V1280H783.69V982h743L1729,1280h255.47Z"/><polygon class="cls-7" points="1274.45 1007.2 1184.88 1007.2 1184.88 1279.99 1274.45 1279.99 1313.88 1279.99 1403.45 1279.99 1403.45 1007.2 1313.88 1007.2 1274.45 1007.2"/><path class="cls-50" d="M1757.64,948.69c127.2-50.08,213.43-156.22,213.43-315.79,0-205.81-143.36-346.31-380.37-346.31H1184.78V761.78h218.57V483.87h168.89c109.3,0,177.41,52.51,177.41,150.46,0,88-63.86,153.27-173.15,153.27H783.59v-501H565v993.5H783.59v-298h743l202.25,298h255.47Z"/><polygon class="cls-7" points="1274.35 1007.3 1184.78 1007.3 1184.78 1280.09 1274.35 1280.09 1313.78 1280.09 1403.35 1280.09 1403.35 1007.3 1313.78 1007.3 1274.35 1007.3"/><path class="cls-51" d="M1757.54,948.79C1884.74,898.71,1971,792.57,1971,633c0-205.81-143.36-346.31-380.37-346.31H1184.68V761.88h218.57V484h168.9c109.29,0,177.4,52.51,177.4,150.45,0,88-63.86,153.28-173.15,153.28H783.49v-501H564.92v993.49H783.49v-298h743l202.25,298h255.47Z"/><polygon class="cls-7" points="1274.25 1007.4 1184.68 1007.4 1184.68 1280.18 1274.25 1280.18 1313.68 1280.18 1403.25 1280.18 1403.25 1007.4 1313.68 1007.4 1274.25 1007.4"/><path class="cls-52" d="M1757.44,948.89c127.2-50.08,213.44-156.22,213.44-315.79,0-205.81-143.37-346.31-380.38-346.31H1184.58V762h218.57V484.07h168.9c109.29,0,177.4,52.51,177.4,150.45,0,88-63.86,153.28-173.15,153.28H783.4v-501H564.82v993.49H783.4v-298h743l202.25,298h255.47Z"/><polygon class="cls-7" points="1274.15 1007.5 1184.58 1007.5 1184.58 1280.28 1274.15 1280.28 1313.58 1280.28 1403.15 1280.28 1403.15 1007.5 1313.58 1007.5 1274.15 1007.5"/><path class="cls-52" d="M1757.34,949c127.2-50.08,213.44-156.22,213.44-315.79,0-205.81-143.37-346.31-380.38-346.31H1184.48V762.08h218.57V484.17H1572c109.29,0,177.41,52.51,177.41,150.45,0,88-63.87,153.28-173.16,153.28H783.3v-501H564.72v993.49H783.3v-298h743l202.25,298H1984Z"/><polygon class="cls-7" points="1274.06 1007.6 1184.48 1007.6 1184.48 1280.38 1274.06 1280.38 1313.48 1280.38 1403.05 1280.38 1403.05 1007.6 1313.48 1007.6 1274.06 1007.6"/><path class="cls-53" d="M1757.24,949.09c127.2-50.08,213.44-156.22,213.44-315.79,0-205.81-143.37-346.31-380.37-346.31H1184.38V762.18H1403V484.27h168.89c109.29,0,177.41,52.51,177.41,150.45,0,88-63.87,153.28-173.16,153.28H783.2V287H564.62v993.49H783.2v-298h743l202.25,298h255.48Z"/><polygon class="cls-7" points="1273.96 1007.7 1184.38 1007.7 1184.38 1280.48 1273.96 1280.48 1313.38 1280.48 1402.95 1280.48 1402.95 1007.7 1313.38 1007.7 1273.96 1007.7"/><path class="cls-54" d="M1757.14,949.19c127.2-50.08,213.44-156.22,213.44-315.79,0-205.81-143.36-346.31-380.37-346.31H1184.28V762.27h218.58V484.37h168.89c109.29,0,177.41,52.51,177.41,150.45,0,88-63.87,153.28-173.16,153.28H783.1v-501H564.52v993.49H783.1v-298h743l202.25,298h255.48Z"/><polygon class="cls-7" points="1273.86 1007.79 1184.28 1007.79 1184.28 1280.58 1273.86 1280.58 1313.28 1280.58 1402.86 1280.58 1402.86 1007.79 1313.28 1007.79 1273.86 1007.79"/><path class="cls-55" d="M1757,949.29c127.2-50.09,213.44-156.22,213.44-315.79,0-205.81-143.36-346.31-380.37-346.31H1184.19V762.37h218.57V484.47h168.89c109.29,0,177.41,52.51,177.41,150.45,0,88-63.87,153.27-173.16,153.27H783v-501H564.42v993.49H783v-298h743l202.25,298h255.48Z"/><polygon class="cls-7" points="1273.76 1007.89 1184.18 1007.89 1184.18 1280.68 1273.76 1280.68 1313.18 1280.68 1402.76 1280.68 1402.76 1007.89 1313.18 1007.89 1273.76 1007.89"/><path class="cls-56" d="M1757,949.38c127.19-50.08,213.43-156.21,213.43-315.78,0-205.81-143.36-346.31-380.37-346.31H1184.09V762.47h218.57V484.56h168.89C1680.84,484.56,1749,537.08,1749,635c0,88-63.87,153.27-173.16,153.27H782.9v-501H564.32v993.49H782.9v-298h743l202.25,298h255.48Z"/><polygon class="cls-7" points="1273.66 1007.99 1184.09 1007.99 1184.09 1280.78 1273.66 1280.78 1313.09 1280.78 1402.66 1280.78 1402.66 1007.99 1313.09 1007.99 1273.66 1007.99"/><path class="cls-56" d="M1756.85,949.48c127.2-50.08,213.43-156.21,213.43-315.79,0-205.8-143.36-346.3-380.37-346.3H1184V762.57h218.57V484.66h168.89c109.29,0,177.41,52.52,177.41,150.46,0,88-63.86,153.27-173.16,153.27H782.8v-501H564.22v993.49H782.8v-298h743l202.25,298h255.48Z"/><polygon class="cls-7" points="1273.56 1008.09 1183.99 1008.09 1183.99 1280.88 1273.56 1280.88 1312.99 1280.88 1402.56 1280.88 1402.56 1008.09 1312.99 1008.09 1273.56 1008.09"/><path class="cls-57" d="M1756.75,949.58c127.2-50.08,213.43-156.22,213.43-315.79,0-205.81-143.36-346.31-380.37-346.31H1183.89V762.67h218.57V484.76h168.89c109.29,0,177.41,52.52,177.41,150.46,0,88-63.86,153.27-173.16,153.27H782.7v-501H564.12V1281H782.7v-298h743L1728,1281h255.47Z"/><polygon class="cls-7" points="1273.46 1008.19 1183.89 1008.19 1183.89 1280.98 1273.46 1280.98 1312.89 1280.98 1402.46 1280.98 1402.46 1008.19 1312.89 1008.19 1273.46 1008.19"/><path class="cls-57" d="M1756.65,949.68c127.2-50.08,213.43-156.22,213.43-315.79,0-205.81-143.36-346.31-380.37-346.31H1183.79V762.77h218.57V484.86h168.89c109.3,0,177.41,52.51,177.41,150.46,0,88-63.86,153.27-173.15,153.27H782.6v-501H564v993.5H782.6V983h743l202.25,298h255.47Z"/><polygon class="cls-7" points="1273.36 1008.29 1183.79 1008.29 1183.79 1281.08 1273.36 1281.08 1312.79 1281.08 1402.36 1281.08 1402.36 1008.29 1312.79 1008.29 1273.36 1008.29"/><path class="cls-58" d="M1756.55,949.78C1883.75,899.7,1970,793.56,1970,634c0-205.81-143.36-346.31-380.37-346.31H1183.69V762.87h218.57V485h168.89c109.3,0,177.41,52.51,177.41,150.45,0,88-63.86,153.28-173.15,153.28H782.5v-501H563.93v993.49H782.5v-298h743l202.25,298h255.47Z"/><polygon class="cls-7" points="1273.26 1008.39 1183.69 1008.39 1183.69 1281.17 1273.26 1281.17 1312.69 1281.17 1402.26 1281.17 1402.26 1008.39 1312.69 1008.39 1273.26 1008.39"/><path class="cls-59" d="M1756.45,949.88c127.2-50.08,213.44-156.22,213.44-315.79,0-205.81-143.37-346.31-380.38-346.31H1183.59V763h218.57V485.06h168.9c109.29,0,177.4,52.51,177.4,150.45,0,88-63.86,153.28-173.15,153.28H782.41v-501H563.83v993.49H782.41v-298h743l202.25,298h255.47Z"/><polygon class="cls-7" points="1273.16 1008.49 1183.59 1008.49 1183.59 1281.27 1273.16 1281.27 1312.59 1281.27 1402.16 1281.27 1402.16 1008.49 1312.59 1008.49 1273.16 1008.49"/><path class="cls-60" d="M1756.35,950c127.2-50.08,213.44-156.22,213.44-315.79,0-205.81-143.37-346.31-380.38-346.31H1183.49V763.07h218.57V485.16H1571c109.29,0,177.41,52.51,177.41,150.45,0,88-63.87,153.28-173.16,153.28H782.31v-501H563.73v993.49H782.31v-298h743l202.25,298H1983Z"/><polygon class="cls-7" points="1273.07 1008.59 1183.49 1008.59 1183.49 1281.37 1273.07 1281.37 1312.49 1281.37 1402.06 1281.37 1402.06 1008.59 1312.49 1008.59 1273.07 1008.59"/><path class="cls-60" d="M1756.25,950.08c127.2-50.08,213.44-156.22,213.44-315.79,0-205.81-143.37-346.31-380.37-346.31H1183.39V763.17H1402V485.26h168.89c109.29,0,177.41,52.51,177.41,150.45,0,88-63.87,153.28-173.16,153.28H782.21V288H563.63v993.49H782.21v-298h743l202.25,298H1983Z"/><polygon class="cls-7" points="1272.97 1008.69 1183.39 1008.69 1183.39 1281.47 1272.97 1281.47 1312.39 1281.47 1401.96 1281.47 1401.96 1008.69 1312.39 1008.69 1272.97 1008.69"/><path class="cls-60" d="M1756.15,950.18c127.2-50.08,213.44-156.22,213.44-315.79,0-205.81-143.36-346.31-380.37-346.31H1183.29V763.27h218.58V485.36h168.89c109.29,0,177.41,52.51,177.41,150.45,0,88-63.87,153.28-173.16,153.28H782.11v-501H563.53v993.49H782.11v-298h743l202.25,298h255.48Z"/><polygon class="cls-7" points="1272.87 1008.78 1183.29 1008.78 1183.29 1281.57 1272.87 1281.57 1312.29 1281.57 1401.87 1281.57 1401.87 1008.78 1312.29 1008.78 1272.87 1008.78"/><path class="cls-61" d="M1756.05,950.28c127.2-50.09,213.44-156.22,213.44-315.79,0-205.81-143.36-346.31-380.37-346.31H1183.2V763.36h218.57V485.46h168.89c109.29,0,177.41,52.51,177.41,150.45,0,88-63.87,153.27-173.16,153.27H782v-501H563.43v993.49H782v-298h743l202.25,298h255.48Z"/><polygon class="cls-7" points="1272.77 1008.88 1183.19 1008.88 1183.19 1281.67 1272.77 1281.67 1312.19 1281.67 1401.77 1281.67 1401.77 1008.88 1312.19 1008.88 1272.77 1008.88"/><path class="cls-61" d="M1756,950.37c127.19-50.08,213.43-156.21,213.43-315.78,0-205.81-143.36-346.31-380.37-346.31H1183.1V763.46h218.57V485.55h168.89C1679.85,485.55,1748,538.07,1748,636c0,88-63.87,153.27-173.16,153.27H781.91v-501H563.33v993.49H781.91v-298h743l202.25,298h255.48Z"/><polygon class="cls-7" points="1272.67 1008.98 1183.1 1008.98 1183.1 1281.77 1272.67 1281.77 1312.1 1281.77 1401.67 1281.77 1401.67 1008.98 1312.1 1008.98 1272.67 1008.98"/><path class="cls-62" d="M1755.86,950.47c127.19-50.08,213.43-156.21,213.43-315.79,0-205.8-143.36-346.3-380.37-346.3H1183V763.56h218.57V485.65h168.89c109.29,0,177.41,52.52,177.41,150.46,0,88-63.86,153.27-173.16,153.27H781.81v-501H563.23v993.49H781.81v-298h743l202.25,298h255.48Z"/><polygon class="cls-7" points="1272.57 1009.08 1183 1009.08 1183 1281.87 1272.57 1281.87 1312 1281.87 1401.57 1281.87 1401.57 1009.08 1312 1009.08 1272.57 1009.08"/><path class="cls-62" d="M1755.76,950.57c127.2-50.08,213.43-156.22,213.43-315.79,0-205.81-143.36-346.31-380.37-346.31H1182.9V763.66h218.57V485.75h168.89c109.29,0,177.41,52.52,177.41,150.46,0,88-63.86,153.27-173.16,153.27H781.71v-501H563.13V1282H781.71v-298h743L1727,1282h255.47Z"/><polygon class="cls-7" points="1272.47 1009.18 1182.9 1009.18 1182.9 1281.97 1272.47 1281.97 1311.9 1281.97 1401.47 1281.97 1401.47 1009.18 1311.9 1009.18 1272.47 1009.18"/><path class="cls-63" d="M1755.66,950.67c127.2-50.08,213.43-156.22,213.43-315.79,0-205.81-143.36-346.31-380.37-346.31H1182.8V763.76h218.57V485.85h168.89c109.3,0,177.41,52.52,177.41,150.46,0,88-63.86,153.27-173.15,153.27H781.61v-501H563v993.5H781.61V984h743l202.25,298h255.47Z"/><polygon class="cls-7" points="1272.37 1009.28 1182.8 1009.28 1182.8 1282.07 1272.37 1282.07 1311.8 1282.07 1401.37 1282.07 1401.37 1009.28 1311.8 1009.28 1272.37 1009.28"/><path class="cls-64" d="M1755.56,950.77C1882.76,900.69,1969,794.55,1969,635c0-205.81-143.36-346.31-380.37-346.31H1182.7V763.86h218.57V486h168.89c109.3,0,177.41,52.51,177.41,150.45,0,88-63.86,153.28-173.15,153.28H781.51v-501H562.94v993.49H781.51v-298h743l202.25,298h255.47Z"/><polygon class="cls-7" points="1272.27 1009.38 1182.7 1009.38 1182.7 1282.16 1272.27 1282.16 1311.7 1282.16 1401.27 1282.16 1401.27 1009.38 1311.7 1009.38 1272.27 1009.38"/><path class="cls-64" d="M1755.46,950.87c127.2-50.08,213.44-156.22,213.44-315.79,0-205.81-143.37-346.31-380.38-346.31H1182.6V764h218.57V486.05h168.9c109.29,0,177.4,52.51,177.4,150.45,0,88-63.86,153.28-173.15,153.28H781.42v-501H562.84v993.49H781.42v-298h743l202.25,298h255.47Z"/><polygon class="cls-7" points="1272.17 1009.48 1182.6 1009.48 1182.6 1282.26 1272.17 1282.26 1311.6 1282.26 1401.17 1282.26 1401.17 1009.48 1311.6 1009.48 1272.17 1009.48"/><path class="cls-65" d="M1755.36,951c127.2-50.08,213.44-156.22,213.44-315.79,0-205.81-143.37-346.31-380.38-346.31H1182.5V764.06h218.57V486.15H1570c109.29,0,177.4,52.51,177.4,150.45,0,88-63.86,153.28-173.15,153.28H781.32v-501H562.74v993.49H781.32v-298h743l202.25,298h255.47Z"/><polygon class="cls-7" points="1272.08 1009.58 1182.5 1009.58 1182.5 1282.36 1272.08 1282.36 1311.5 1282.36 1401.07 1282.36 1401.07 1009.58 1311.5 1009.58 1272.08 1009.58"/><path class="cls-65" d="M1755.26,951.07C1882.46,901,1968.7,794.85,1968.7,635.28c0-205.81-143.37-346.31-380.37-346.31H1182.4V764.16H1401V486.25h168.9c109.29,0,177.41,52.51,177.41,150.45,0,88-63.87,153.28-173.16,153.28H781.22V289H562.64v993.49H781.22v-298h743l202.25,298H1982Z"/><polygon class="cls-7" points="1271.98 1009.68 1182.4 1009.68 1182.4 1282.46 1271.98 1282.46 1311.4 1282.46 1400.97 1282.46 1400.97 1009.68 1311.4 1009.68 1271.98 1009.68"/><path class="cls-66" d="M1755.16,951.17C1882.36,901.09,1968.6,795,1968.6,635.38c0-205.81-143.36-346.31-380.37-346.31H1182.3V764.26h218.58V486.35h168.89c109.29,0,177.41,52.51,177.41,150.45,0,88-63.87,153.28-173.16,153.28H781.12v-501H562.54v993.49H781.12v-298h743l202.25,298h255.48Z"/><polygon class="cls-7" points="1271.88 1009.77 1182.3 1009.77 1182.3 1282.56 1271.88 1282.56 1311.3 1282.56 1400.88 1282.56 1400.88 1009.77 1311.3 1009.77 1271.88 1009.77"/><path class="cls-67" d="M1755.06,951.27c127.2-50.08,213.44-156.22,213.44-315.79,0-205.81-143.36-346.31-380.37-346.31H1182.2V764.35h218.58V486.45h168.89c109.29,0,177.41,52.51,177.41,150.45,0,88-63.87,153.27-173.16,153.27H781v-501H562.44v993.49H781v-298h743l202.25,298h255.48Z"/><polygon class="cls-7" points="1271.78 1009.87 1182.2 1009.87 1182.2 1282.66 1271.78 1282.66 1311.2 1282.66 1400.78 1282.66 1400.78 1009.87 1311.2 1009.87 1271.78 1009.87"/><path class="cls-7" d="M1755,951.36c127.19-50.08,213.43-156.21,213.43-315.78,0-205.81-143.36-346.31-380.37-346.31H1182.11V764.45h218.57V486.55h168.89C1678.86,486.55,1747,539.06,1747,637c0,88-63.87,153.27-173.16,153.27H780.92v-501H562.34v993.49H780.92v-298h743l202.25,298h255.48Z"/><polygon class="cls-7" points="1271.68 1009.97 1182.11 1009.97 1182.11 1282.76 1271.68 1282.76 1311.11 1282.76 1400.68 1282.76 1400.68 1009.97 1311.11 1009.97 1271.68 1009.97"/><path class="cls-7" d="M1754.87,951.46c127.19-50.08,213.43-156.21,213.43-315.79,0-205.8-143.36-346.3-380.37-346.3H1182V764.55h218.57V486.64h168.89c109.29,0,177.41,52.52,177.41,150.46,0,88-63.86,153.27-173.16,153.27H780.82v-501H562.24v993.49H780.82v-298h743l202.25,298h255.48Z"/><polygon class="cls-7" points="1271.58 1010.07 1182.01 1010.07 1182.01 1282.86 1271.58 1282.86 1311.01 1282.86 1400.58 1282.86 1400.58 1010.07 1311.01 1010.07 1271.58 1010.07"/><g class="cls-68"><path class="cls-69" d="M740.08,412.43c0,227.79-107.81,412.44-240.8,412.44s-240.8-184.65-240.8-412.44S366.29,0,499.28,0,740.08,184.66,740.08,412.43Z"/></g><g class="cls-70"><path class="cls-71" d="M586.71,1010.62c-43.1,205.43-184.82,349.56-316.54,321.93S66.59,1116,109.69,910.55,294.5,561,426.23,588.63,629.81,805.2,586.71,1010.62Z"/></g><polygon class="cls-72" points="189.8 668.15 312.79 708.47 127.62 735.89 4.62 695.57 189.8 668.15"/><g class="cls-5"><path class="cls-73" d="M6.38,681.51,185.56,655c-.17.2-.34.39-.49.59L5.51,682.16c.28-.22.57-.43.87-.65"/><path class="cls-74" d="M5.51,682.16l179.56-26.59a9.79,9.79,0,0,0-.85,1.28L3.86,683.55c.5-.46,1.05-.93,1.65-1.39"/><path class="cls-75" d="M3.86,683.55l180.36-26.7a8.6,8.6,0,0,0-.69,1.53L2.28,685.22a18.58,18.58,0,0,1,1.58-1.67"/><path class="cls-76" d="M2.28,685.22l181.25-26.84c-1.36,4.06,1,8,6.27,9.77L4.62,695.57c-5.3-1.74-6-6-2.34-10.35"/></g><polygon class="cls-77" points="415.44 704.91 538.43 745.23 404.45 1276.02 281.45 1235.7 415.44 704.91"/><g class="cls-5"><path class="cls-78" d="M404.45,1276l134-530.79c.3.1.6.19.89.26l-134,530.8-.88-.27"/><path class="cls-79" d="M405.33,1276.29l134-530.8a13.31,13.31,0,0,0,1.3.29l-134,530.82c-.41-.09-.84-.19-1.29-.31"/><path class="cls-80" d="M406.62,1276.6l134-530.82a9.48,9.48,0,0,0,1.15.14l-134,530.87c-.37,0-.75-.11-1.15-.19"/><path class="cls-81" d="M407.77,1276.79l134-530.87a8.71,8.71,0,0,0,1,0l-134,530.93-1-.09"/><path class="cls-82" d="M408.76,1276.88,542.78,746c.3,0,.59,0,.87-.07l-134,531a7.94,7.94,0,0,1-.85,0"/><path class="cls-83" d="M409.61,1276.87l134-531c.25,0,.5-.09.74-.15L410.33,1276.81q-.34,0-.72.06"/><path class="cls-84" d="M410.33,1276.81,544.39,745.73a5.79,5.79,0,0,0,.63-.19L411,1276.69a5.67,5.67,0,0,1-.62.12"/><path class="cls-85" d="M411,1276.69,545,745.54a4.41,4.41,0,0,0,.54-.24L411.47,1276.54a4.44,4.44,0,0,1-.52.15"/><path class="cls-86" d="M411.47,1276.54,545.56,745.3A3.47,3.47,0,0,0,546,745L411.91,1276.36l-.44.18"/><path class="cls-87" d="M411.91,1276.36,546,745a3.6,3.6,0,0,0,.4-.28l-134.14,531.4-.37.2"/><path class="cls-88" d="M412.28,1276.15l134.14-531.4.34-.31L412.6,1275.92l-.32.23"/><path class="cls-89" d="M412.6,1275.92,546.76,744.44c.1-.11.2-.21.29-.32L412.86,1275.69l-.26.23"/><path class="cls-90" d="M412.86,1275.69,547.05,744.12l.24-.34-134.2,531.65a1.84,1.84,0,0,1-.23.25"/><path class="cls-91" d="M413.09,1275.43l134.2-531.65a4.05,4.05,0,0,0,.21-.35L413.28,1275.16a1.85,1.85,0,0,1-.19.27"/><path class="cls-92" d="M413.28,1275.16,547.5,743.43c.06-.12.13-.25.18-.38L413.43,1274.88a2.49,2.49,0,0,1-.15.28"/><path class="cls-73" d="M413.43,1274.88,547.68,743.05c.06-.13.1-.26.15-.4L413.56,1274.56a1.79,1.79,0,0,1-.13.32"/><path class="cls-74" d="M413.56,1274.56,547.83,742.65l.09-.32L541,769.73,534.11,797l-6.87,27.23-6.85,27.13-6.83,27.05-6.81,27L500,932.29l-6.76,26.79-6.74,26.71-6.72,26.63L473,1039l-6.68,26.46-6.65,26.38-6.64,26.31-6.62,26.22-6.6,26.15-6.58,26.07-6.57,26-6.54,25.92-6.52,25.85c0,.09-.05.17-.08.25"/></g><polygon class="cls-72" points="281.45 1235.7 404.45 1276.02 178.81 1239.26 55.81 1198.94 281.45 1235.7"/><g class="cls-5"><path class="cls-73" d="M265.66,1222.7,400.15,689.94a1.54,1.54,0,0,0,.05.17L265.72,1222.84l-.06-.14"/><path class="cls-92" d="M265.72,1222.84,400.2,690.11a1.71,1.71,0,0,0,.09.3L265.82,1223.09l-.1-.25"/><path class="cls-91" d="M265.82,1223.09,400.29,690.41l.09.3L265.93,1223.34a2.72,2.72,0,0,0-.11-.25"/><path class="cls-90" d="M265.93,1223.34,400.38,690.71c0,.09.07.19.1.28L266.05,1223.57l-.12-.23"/><path class="cls-89" d="M266.05,1223.57,400.48,691l.11.27L266.16,1223.8l-.11-.23"/><path class="cls-88" d="M266.16,1223.8,400.59,691.26c0,.09.07.18.11.27L266.28,1224l-.12-.22"/><path class="cls-87" d="M266.28,1224,400.7,691.53c0,.09.07.18.11.27l-134.4,532.44-.13-.22"/><path class="cls-86" d="M266.41,1224.24,400.81,691.8l.12.27-134.39,532.4-.13-.23"/><path class="cls-85" d="M266.54,1224.47l134.39-532.4c0,.09.08.18.13.27L266.68,1224.69l-.14-.22"/><path class="cls-84" d="M266.68,1224.69,401.06,692.34c0,.09.08.18.13.27l-134.37,532.3a1.64,1.64,0,0,1-.14-.22"/><path class="cls-83" d="M266.82,1224.91l134.37-532.3.12.24L267,1225.11l-.13-.2"/><path class="cls-82" d="M267,1225.11,401.31,692.85l.12.23L267.08,1225.3l-.13-.19"/><path class="cls-81" d="M267.08,1225.3,401.43,693.08l.12.23L267.22,1225.5l-.14-.2"/><path class="cls-80" d="M267.22,1225.5,401.55,693.31a1.71,1.71,0,0,1,.13.23L267.35,1225.69c0-.07-.09-.13-.13-.19"/><path class="cls-79" d="M267.35,1225.69,401.68,693.54l.11.18L267.47,1225.84l-.12-.15"/><path class="cls-78" d="M267.47,1225.84,401.79,693.72a1.4,1.4,0,0,0,.1.16L267.57,1226l-.1-.14"/><path class="cls-93" d="M267.57,1226l134.32-532.1.09.17-134.3,532.07a1.71,1.71,0,0,0-.11-.14"/><path class="cls-94" d="M267.68,1226.12,402,694.05l.11.16-134.31,532-.1-.13"/><path class="cls-95" d="M267.78,1226.25l134.31-532a1.4,1.4,0,0,0,.1.16l-134.3,532-.11-.14"/><path class="cls-96" d="M267.89,1226.39l134.3-532c0,.06.07.11.1.16L268,1226.53a1.34,1.34,0,0,0-.11-.14"/><path class="cls-97" d="M268,1226.53l134.29-532,.09.14-134.28,532-.1-.11"/><path class="cls-98" d="M268.1,1226.64l134.28-532,.09.14-134.27,532-.1-.12"/><path class="cls-99" d="M268.2,1226.76,402.47,694.81l.1.14L268.29,1226.88l-.09-.12"/><path class="cls-100" d="M268.29,1226.88,402.57,695l.09.14L268.4,1227l-.11-.11"/><path class="cls-101" d="M268.4,1227l134.26-531.9.1.14L268.5,1227.11l-.1-.12"/><path class="cls-102" d="M268.5,1227.11,402.76,695.23a1.13,1.13,0,0,0,.1.13L268.6,1227.23l-.1-.12"/><path class="cls-103" d="M268.6,1227.23,402.86,695.36l.11.16L268.72,1227.36l-.12-.13"/><path class="cls-104" d="M268.72,1227.36,403,695.52l.12.16L268.85,1227.5l-.13-.14"/><path class="cls-105" d="M268.85,1227.5,403.09,695.68l.12.17L269,1227.64l-.13-.14"/><path class="cls-106" d="M269,1227.64,403.21,695.85l.13.16L269.11,1227.78l-.13-.14"/><path class="cls-107" d="M269.11,1227.78,403.34,696l.13.17L269.24,1227.92l-.13-.14"/><path class="cls-108" d="M269.24,1227.92,403.47,696.18l.15.2L269.41,1228.09l-.17-.17"/><path class="cls-109" d="M269.41,1228.09,403.62,696.38a4,4,0,0,1,.26.32l-134.2,531.66-.27-.27"/><path class="cls-110" d="M269.68,1228.36,403.88,696.7l.27.32L270,1228.64l-.28-.28"/><path class="cls-111" d="M270,1228.64,404.15,697q.54.65,1.14,1.26L271.14,1229.72c-.41-.35-.81-.72-1.18-1.08"/><path class="cls-110" d="M271.14,1229.72,405.29,698.28l.44.44L271.59,1230.1l-.45-.38"/><path class="cls-109" d="M271.59,1230.1,405.73,698.72l.35.34L272,1230.4l-.36-.3"/><path class="cls-108" d="M272,1230.4,406.08,699.06l.3.29-134.11,531.3-.32-.25"/><path class="cls-107" d="M272.27,1230.65l134.11-531.3.32.29L272.6,1230.91l-.33-.26"/><path class="cls-106" d="M272.6,1230.91,406.7,699.64l.31.28-134.1,531.23-.31-.24"/><path class="cls-105" d="M272.91,1231.15,407,699.92l.31.27L273.23,1231.38l-.32-.23"/><path class="cls-104" d="M273.23,1231.38,407.32,700.19l.32.27L273.56,1231.62l-.33-.24"/><path class="cls-103" d="M273.56,1231.62,407.64,700.46l.35.28L273.92,1231.87l-.36-.25"/><path class="cls-102" d="M273.92,1231.87,408,700.74l.35.28-134.06,531.1-.36-.25"/><path class="cls-101" d="M274.28,1232.12,408.34,701l.4.3-134,531.06-.41-.26"/><path class="cls-100" d="M274.69,1232.38,408.74,701.32l.43.32-134,531-.44-.29"/><path class="cls-99" d="M275.13,1232.67l134-531,.48.33-134,531-.49-.3"/><path class="cls-98" d="M275.62,1233l134-531,.55.37-134,531-.56-.33"/><path class="cls-97" d="M276.18,1233.3l134-531,.65.41-134,530.92-.66-.37"/><path class="cls-96" d="M276.84,1233.67l134-530.92.75.45-134,530.87-.76-.4"/><path class="cls-95" d="M277.6,1234.07l134-530.87.93.49-134,530.84-.93-.46"/><path class="cls-94" d="M278.53,1234.53l134-530.84c.37.19.74.37,1.12.53L279.66,1235c-.38-.16-.76-.32-1.13-.5"/><path class="cls-93" d="M279.66,1235l134-530.81c.43.19.86.36,1.3.52L281,1235.53c-.43-.15-.87-.32-1.3-.5"/><path class="cls-78" d="M281,1235.53,415,704.74l.49.17-134,530.79-.49-.17"/></g><g class="cls-5"><path class="cls-73" d="M51.08,1187.75l214.58,35,.12.3L50.83,1188a2.83,2.83,0,0,1,.25-.24"/><path class="cls-74" d="M50.83,1188l215,35c.11.24.22.49.35.74L50.3,1188.58a7.23,7.23,0,0,1,.53-.59"/><path class="cls-75" d="M50.3,1188.58l215.83,35.16c.16.3.34.61.53.92L49.77,1189.33a6,6,0,0,1,.53-.75"/><path class="cls-76" d="M49.77,1189.33l216.89,35.33c2.76,4.44,8.88,9.1,14.79,11L55.81,1198.94c-5.91-1.94-8.28-6-6-9.61"/></g><path class="cls-112" d="M453.37,36.52c32.58,241.7,66.9,496.25,98.94,733.93L400.15,689.94c-47.2,187-91.86,363.9-134.49,532.76l-214.58-35C93.7,1018.88,138.36,842,185.56,655L6.38,681.51Z"/><g class="cls-5"><path class="cls-73" d="M185.56,655,51.08,1187.75l-.13.11L185.43,655.13l.13-.15"/><path class="cls-74" d="M185.43,655.13,51,1187.86a3.45,3.45,0,0,0-.26.28L185.15,655.47c.09-.11.18-.23.28-.34"/><path class="cls-75" d="M185.15,655.47,50.69,1188.14a3.17,3.17,0,0,0-.3.34L184.82,655.9l.33-.43"/><path class="cls-76" d="M184.82,655.9,50.39,1188.48a6.12,6.12,0,0,0-1.31,2.43l6.53-25.84,6.54-25.92,6.56-26,6.58-26.07,6.6-26.15,6.62-26.22L101.81,982l6.68-26.46,6.7-26.54,6.72-26.63,6.74-26.7,6.77-26.79L142.2,822l6.81-27,6.82-27,6.86-27.14,6.87-27.22,6.89-27.32,6.92-27.4a8.85,8.85,0,0,1,1.45-3"/></g><g class="cls-5"><path class="cls-73" d="M453.37,36.52l-447,645-.31.23L453.46,36.17l-.09.35"/><path class="cls-74" d="M453.46,36.17,6.07,681.74c-.24.17-.47.34-.69.52L453.7,35.35c-.09.27-.17.54-.24.82"/><path class="cls-75" d="M453.7,35.35,5.38,682.26c-.3.23-.59.47-.87.71L454.06,34.29c-.13.35-.25.7-.36,1.06"/><path class="cls-76" d="M454.06,34.29,4.51,683a17.47,17.47,0,0,0-2.95,3.19L24,653.82l22.49-32.46L69,588.8l22.64-32.65,22.68-32.74,22.74-32.81,22.78-32.87,22.82-32.92,22.84-33,22.85-33,22.87-33,22.87-33,22.87-33,22.85-33L342.68,194,365.48,161l22.77-32.85L411,95.4l22.67-32.72,22.61-32.63a19.73,19.73,0,0,0-2.2,4.24"/></g><g class="cls-5"><path class="cls-95" d="M695.68,828.43,592.73,64.76l.29.1L696,828.53l-.29-.1"/><path class="cls-94" d="M696,828.53,593,64.86a10.54,10.54,0,0,1,1.33.59l102.92,763.4c-.41-.08-.84-.19-1.3-.32"/><path class="cls-93" d="M697.27,828.85,594.35,65.45a10.37,10.37,0,0,1,1.15.7L698.34,829a7.23,7.23,0,0,1-1.07-.15"/><path class="cls-78" d="M698.34,829,595.5,66.15c.33.24.66.49,1,.76L699.22,829a6.51,6.51,0,0,1-.88,0"/><path class="cls-79" d="M699.22,829,596.47,66.91c.29.25.57.52.84.8l102.62,761.2a5.28,5.28,0,0,1-.71.1"/><path class="cls-80" d="M699.93,828.91,597.31,67.71c.24.26.48.54.71.82l102.49,760.2a2.79,2.79,0,0,1-.58.18"/><path class="cls-81" d="M700.51,828.73,598,68.53c.21.26.42.53.61.82L701,828.5a2.92,2.92,0,0,1-.47.23"/><path class="cls-82" d="M701,828.5,598.63,69.35c.18.26.35.53.52.81l102.2,758.06a3.27,3.27,0,0,1-.37.28"/><path class="cls-83" d="M701.35,828.22,599.15,70.16c.15.25.3.51.44.78l102,757c-.09.11-.19.21-.29.31"/><path class="cls-84" d="M701.64,827.91l-102-757c.13.26.26.51.38.78l101.9,755.85a4,4,0,0,1-.23.34"/><path class="cls-85" d="M701.87,827.57,600,71.72c.11.25.22.5.32.76L702,827.22a3.78,3.78,0,0,1-.17.35"/><path class="cls-86" d="M702,827.22,600.29,72.48c.1.24.19.48.27.73L702.17,826.86c0,.12-.08.24-.13.36"/><path class="cls-87" d="M702.17,826.86,600.56,73.21c.09.24.16.48.24.72L702.25,826.48c0,.13,0,.26-.08.38"/><path class="cls-88" d="M702.25,826.48,600.8,73.93c.07.23.13.47.2.71L702.3,826.09c0,.13,0,.27,0,.39"/><path class="cls-89" d="M702.3,826.09,601,74.64c0,.23.11.45.16.68L702.32,825.7c0,.13,0,.26,0,.39"/><path class="cls-90" d="M702.32,825.7,601.16,75.32c.05.23.09.46.14.69l101,749.28c0,.14,0,.28,0,.41"/><path class="cls-91" d="M702.31,825.29,601.3,76c0,.23.08.46.11.69L702.27,824.87c0,.14,0,.28,0,.42"/><path class="cls-92" d="M702.27,824.87,601.41,76.7l0,.2h0l5,37.2,5,37.3,5,37.38,5.05,37.44,5,37.5,5.06,37.54,5.07,37.57,5.06,37.6,5.08,37.6L652,451.62,657,489.2l5.06,37.55,5.06,37.52,5.05,37.46,5,37.4,5,37.32,5,37.23,5,37.14,5,37,5,36.9s0,.09,0,.13"/></g><polygon class="cls-113" points="469.73 24.44 592.73 64.76 695.68 828.43 572.69 788.11 469.73 24.44"/><g class="cls-5"><path class="cls-73" d="M400.15,689.94l152.16,80.51.19.32L400.22,690.2c0-.09-.05-.18-.07-.26"/><path class="cls-74" d="M400.22,690.2,552.5,770.77c.16.25.31.5.48.75L400.42,690.8c-.07-.2-.14-.4-.2-.6"/><path class="cls-75" d="M400.42,690.8,553,771.52c.21.33.43.67.67,1L400.73,691.61c-.11-.27-.22-.54-.31-.81"/><path class="cls-76" d="M400.73,691.61l152.92,80.91a48.35,48.35,0,0,0,15.61,14.1l-7.81-4.13-7.81-4.13-7.82-4.14L538,770.08l-7.83-4.14-7.83-4.15-7.84-4.15-7.85-4.15-7.85-4.15-7.85-4.16L483.08,741l-7.86-4.16-7.87-4.16-7.87-4.16-7.87-4.17-7.88-4.17L435.85,716,428,711.86l-7.89-4.17-7.89-4.18c-5-2.64-9.54-7.32-11.45-11.9"/></g><g class="cls-5"><path class="cls-73" d="M552.31,770.45,453.37,36.52l.06-.23,99,734.35-.12-.19"/><path class="cls-92" d="M552.43,770.64l-99-734.35c0-.13.07-.26.1-.39L552.64,771l-.21-.34"/><path class="cls-91" d="M552.64,771,453.53,35.9l.12-.4,99.2,735.83-.21-.35"/><path class="cls-90" d="M552.85,771.33,453.65,35.5l.12-.38,99.3,736.54-.22-.33"/><path class="cls-89" d="M553.07,771.66,453.77,35.12c0-.11.08-.23.11-.34L553.27,772c-.07-.1-.14-.2-.2-.3"/><path class="cls-88" d="M553.27,772,453.88,34.78l.12-.33,99.47,737.82-.2-.31"/><path class="cls-87" d="M553.47,772.27,454,34.45c.05-.11.09-.22.13-.33l99.55,738.45-.21-.3"/><path class="cls-86" d="M553.68,772.57,454.13,34.12c0-.11.08-.22.13-.33L553.9,772.87l-.22-.3"/><path class="cls-85" d="M553.9,772.87,454.26,33.79a3.05,3.05,0,0,1,.13-.32l99.72,739.7-.21-.3"/><path class="cls-84" d="M554.11,773.17,454.39,33.47c0-.11.09-.21.14-.32l99.81,740.32-.23-.3"/><path class="cls-83" d="M554.33,773.47,454.53,33.15c0-.1.09-.21.14-.31l99.89,740.93-.22-.3"/><path class="cls-82" d="M554.56,773.77,454.67,32.84c0-.1.09-.2.14-.3l100,741.52-.22-.29"/><path class="cls-81" d="M554.78,774.06l-100-741.52.15-.29,100,742.1-.22-.29"/><path class="cls-80" d="M555,774.35,455,32.25a1.59,1.59,0,0,1,.15-.29L555.23,774.64l-.23-.29"/><path class="cls-79" d="M555.23,774.64,455.11,32c0-.1.1-.19.15-.29l100.2,743.25-.23-.28"/><path class="cls-78" d="M555.46,774.92,455.26,31.67l.14-.25L555.67,775.18l-.21-.26"/><path class="cls-93" d="M555.67,775.18,455.4,31.42l.14-.25L555.88,775.44l-.21-.26"/><path class="cls-94" d="M555.88,775.44,455.54,31.17l.15-.24,100.4,744.76-.21-.25"/><path class="cls-95" d="M556.09,775.69,455.69,30.93l.15-.24L556.31,775.94l-.22-.25"/><path class="cls-96" d="M556.31,775.94,455.84,30.69l.15-.24L556.53,776.2l-.22-.26"/><path class="cls-97" d="M556.53,776.2,456,30.45c.06-.08.11-.16.16-.24L556.76,776.46c-.08-.09-.15-.18-.23-.26"/><path class="cls-98" d="M556.76,776.46,456.15,30.21l.17-.24L557,776.72l-.23-.26"/><path class="cls-99" d="M557,776.72,456.32,30l.16-.23L557.22,777l-.23-.25"/><path class="cls-100" d="M557.22,777,456.48,29.74l.19-.26L557.48,777.26l-.26-.29"/><path class="cls-101" d="M557.48,777.26,456.67,29.48l.24-.31L557.82,777.61c-.12-.11-.23-.23-.34-.35"/><path class="cls-102" d="M557.82,777.61,456.91,29.17l.25-.31L558.15,778l-.33-.36"/><path class="cls-103" d="M558.15,778l-101-749.11.34-.39,101.11,750-.46-.47"/><path class="cls-104" d="M558.61,778.44,457.5,28.47c.2-.23.41-.45.62-.66l101.3,751.44-.81-.81"/><path class="cls-105" d="M559.42,779.25,458.12,27.81l.3-.3L559.81,779.62l-.39-.37"/><path class="cls-104" d="M559.81,779.62,458.42,27.51a15.35,15.35,0,0,1,1.4-1.18L561.59,781.24c-.6-.52-1.19-1.06-1.78-1.62"/><path class="cls-103" d="M561.59,781.24,459.82,26.33c.23-.18.47-.34.72-.5L562.48,782c-.3-.24-.59-.5-.89-.75"/><path class="cls-102" d="M562.48,782,460.54,25.83c.24-.16.48-.3.73-.44l102.1,757.32c-.3-.23-.6-.47-.89-.72"/><path class="cls-101" d="M563.37,782.71,461.27,25.39c.26-.15.52-.28.79-.41L564.31,783.44c-.31-.23-.63-.48-.94-.73"/><path class="cls-100" d="M564.31,783.44,462.06,25c.3-.14.61-.26.92-.38l102.4,759.62-1.07-.78"/><path class="cls-99" d="M565.38,784.22,463,24.6c.36-.13.72-.24,1.09-.34L566.64,785.07c-.42-.27-.84-.55-1.26-.85"/><path class="cls-98" d="M566.64,785.07,464.07,24.26a10.17,10.17,0,0,1,1.32-.24L568.12,786c-.49-.29-1-.6-1.48-.92"/><path class="cls-97" d="M568.12,786,465.39,24a9.81,9.81,0,0,1,1.53-.08L569.78,786.89c-.55-.28-1.11-.58-1.66-.9"/><path class="cls-96" d="M569.78,786.89,466.92,23.94a10.75,10.75,0,0,1,1.59.18L571.45,787.65c-.55-.22-1.11-.48-1.67-.76"/><path class="cls-95" d="M571.45,787.65,468.51,24.12a10.43,10.43,0,0,1,1.22.32l103,763.67c-.41-.13-.82-.29-1.24-.46"/></g></g></g></g></svg>